<svg width="181" height="111" viewBox="0 0 181 111" fill="none" xmlns="http://www.w3.org/2000/svg">
<path d="M82.0146 15.3374C84.0807 16.3705 85.2547 17.9671 85.5365 20.1272C85.9121 22.2873 85.3956 24.2595 83.9868 26.0439C82.9537 27.4527 81.5919 28.251 79.9014 28.4388C78.3048 28.6267 76.7082 28.298 75.1116 27.4527C72.388 26.0439 69.5236 24.9169 66.5182 24.0717C63.5128 23.2264 60.3197 22.8038 56.9386 22.8038C51.5854 22.8038 46.7486 23.696 42.4284 25.4804C38.2021 27.171 34.5394 29.6598 31.4401 32.9469C28.3408 36.1401 25.9459 39.9437 24.2554 44.3578C22.6588 48.7719 21.8605 53.6556 21.8605 59.0089C21.8605 64.9257 22.7527 70.1851 24.5372 74.787C26.3216 79.2951 28.7634 83.1457 31.8627 86.3389C35.0559 89.4381 38.7656 91.7861 42.9919 93.3827C47.3121 94.8853 51.961 95.6367 56.9386 95.6367C60.1318 95.6367 63.2311 95.261 66.2365 94.5097C69.3357 93.7583 72.2472 92.6313 74.9708 91.1286C76.6613 90.2834 78.3048 90.0016 79.9014 90.2834C81.5919 90.4712 82.9537 91.2695 83.9868 92.6783C85.5834 94.6505 86.1469 96.6698 85.6773 98.7359C85.3017 100.708 84.1277 102.211 82.1554 103.244C79.8075 104.559 77.2248 105.686 74.4073 106.625C71.5897 107.564 68.7253 108.316 65.8138 108.879C62.9024 109.443 59.944 109.724 56.9386 109.724C50.1766 109.724 43.7902 108.597 37.7795 106.343C31.7688 104.089 26.4155 100.802 21.7196 96.4819C17.0238 92.1617 13.3141 86.8554 10.5904 80.5629C7.96076 74.2705 6.64592 67.0858 6.64592 59.0089C6.64592 51.7773 7.86685 45.1092 10.3087 39.0045C12.8445 32.806 16.3664 27.4997 20.8744 23.0856C25.4763 18.5775 30.8296 15.1026 36.9343 12.6607C43.0389 10.125 49.707 8.85708 56.9386 8.85708C61.4467 8.85708 65.8138 9.42059 70.0401 10.5476C74.3603 11.6746 78.3518 13.2712 82.0146 15.3374Z" fill="#4B0082"/>
<path d="M62.7451 34.0776C66.6996 34.0776 69.7329 35.1112 71.845 37.1783C74.002 39.2005 75.0805 42.0765 75.0805 45.8063C75.0805 47.7836 74.6311 49.6035 73.7323 51.2662C72.8336 52.9289 71.5079 54.2546 69.7554 55.2432C68.0477 56.2318 65.9357 56.7711 63.4192 56.861L63.2843 54.9736C64.8572 54.9736 66.4749 55.1983 68.1376 55.6476C69.8003 56.097 71.3282 56.816 72.7212 57.8046C74.1592 58.7933 75.3051 60.0965 76.1589 61.7142C77.0577 63.332 77.5071 65.3317 77.5071 67.7134C77.5071 70.2748 77.0802 72.4318 76.2264 74.1844C75.3725 75.892 74.2266 77.2851 72.7886 78.3636C71.3956 79.3971 69.8228 80.1386 68.0702 80.588C66.3626 81.0373 64.6325 81.262 62.8799 81.262H45.1521C44.3881 81.262 43.7365 80.9924 43.1973 80.4532C42.703 79.9139 42.4558 79.2623 42.4558 78.4984V36.7739C42.4558 36.0099 42.703 35.3808 43.1973 34.8865C43.7365 34.3472 44.3881 34.0776 45.1521 34.0776H62.7451ZM61.9362 39.4027H47.4439L48.2527 38.1894V54.9736L47.5113 54.0973H62.071C64.0483 54.0973 65.7334 53.4682 67.1265 52.2099C68.5645 50.9067 69.2835 48.9969 69.2835 46.4804C69.2835 44.2335 68.6319 42.5034 67.3287 41.2901C66.0255 40.0318 64.228 39.4027 61.9362 39.4027ZM62.4755 59.4898H47.7809L48.2527 59.018V76.611L47.7135 76.0043H62.6777C65.329 76.0043 67.486 75.3303 69.1487 73.9822C70.8563 72.634 71.7101 70.5444 71.7101 67.7134C71.7101 65.5114 71.2608 63.8263 70.362 62.6579C69.4633 61.4446 68.2949 60.6132 66.8569 60.1639C65.4638 59.7145 64.0033 59.4898 62.4755 59.4898ZM102.423 55.0214C102.847 55.0214 103.197 55.1711 103.471 55.4706C103.746 55.7701 103.883 56.1319 103.883 56.5561V71.4171C103.883 73.3387 103.434 75.0606 102.535 76.5829C101.662 78.1052 100.476 79.3155 98.9791 80.2139C97.4817 81.0873 95.7848 81.5241 93.8882 81.5241C91.9666 81.5241 90.2447 81.0873 88.7224 80.2139C87.2251 79.3155 86.0397 78.1052 85.1662 76.5829C84.2928 75.0606 83.8561 73.3387 83.8561 71.4171V56.5561C83.8561 56.1319 83.9933 55.7701 84.2678 55.4706C84.5673 55.1711 84.9541 55.0214 85.4283 55.0214C85.8275 55.0214 86.1769 55.1711 86.4764 55.4706C86.8008 55.7701 86.963 56.1319 86.963 56.5561V71.4171C86.963 72.7897 87.275 74.0125 87.8988 75.0856C88.5227 76.1586 89.3587 77.0071 90.4069 77.631C91.48 78.2299 92.6404 78.5294 93.8882 78.5294C95.1609 78.5294 96.3338 78.2299 97.4069 77.631C98.48 77.0071 99.3409 76.1586 99.9898 75.0856C100.664 74.0125 101 72.7897 101 71.4171V56.5561C101 56.1319 101.125 55.7701 101.375 55.4706C101.624 55.1711 101.974 55.0214 102.423 55.0214ZM126.013 54.9091C126.437 54.9091 126.787 55.0713 127.061 55.3957C127.361 55.6952 127.51 56.0446 127.51 56.4438C127.51 56.5936 127.485 56.7558 127.436 56.9305C127.411 57.0802 127.348 57.2299 127.248 57.3797L118.564 69.4706L119.051 67.6364V79.7273C119.051 80.1515 118.901 80.5134 118.601 80.8128C118.327 81.1123 117.99 81.262 117.591 81.262C117.141 81.262 116.767 81.1123 116.468 80.8128C116.193 80.5134 116.056 80.1515 116.056 79.7273V67.9358L116.318 68.9091L107.895 57.5294C107.746 57.3298 107.633 57.1426 107.559 56.9679C107.509 56.7683 107.484 56.5811 107.484 56.4064C107.484 55.9822 107.658 55.6328 108.008 55.3583C108.357 55.0588 108.707 54.9091 109.056 54.9091C109.555 54.9091 109.967 55.1462 110.291 55.6203L118.04 66.2513L117.329 66.139L124.778 55.6578C125.102 55.1586 125.514 54.9091 126.013 54.9091Z" fill="#9370DB"/>
</svg>
